<svg xmlns="http://www.w3.org/2000/svg" viewBox="0 0 733.21 372.2"><defs><style>.cls-1{isolation:isolate;}.cls-2{fill:#fbfbfb;}.cls-3{fill:#3c3c3c;}.cls-12,.cls-4{fill:#424242;}.cls-5{fill:#fafafa;}.cls-6{fill:#ede8e4;}.cls-7{fill:#039be5;}.cls-8{fill:#70b773;}.cls-9{fill:#0288d1;}.cls-10{fill:#dbd1c8;}.cls-11{fill:#616161;}.cls-12{opacity:0.2;mix-blend-mode:multiply;}.cls-13{fill:#ef5350;}.cls-14{fill:#e53935;}</style></defs><title>img1</title><g class="cls-1"><g id="OBJECTS"><path class="cls-2" d="M247.64,99a9.28,9.28,0,0,1,9.28,9.28H238.35A9.28,9.28,0,0,1,247.64,99Z" transform="translate(-16.9 -17.38)"/><path class="cls-2" d="M273.93,91.28a17,17,0,0,1,17,17h-34A17,17,0,0,1,273.93,91.28Z" transform="translate(-16.9 -17.38)"/><path class="cls-2" d="M467.31,184.59a9.28,9.28,0,0,1,9.29,9.28H458A9.27,9.27,0,0,1,467.31,184.59Z" transform="translate(-16.9 -17.38)"/><path class="cls-2" d="M493.6,176.87a17,17,0,0,1,17,17h-34A17,17,0,0,1,493.6,176.87Z" transform="translate(-16.9 -17.38)"/><path class="cls-2" d="M558.05,157.73a9.29,9.29,0,0,1,9.29,9.29H548.76A9.29,9.29,0,0,1,558.05,157.73Z" transform="translate(-16.9 -17.38)"/><path class="cls-2" d="M584.34,150a17,17,0,0,1,17,17h-34A17,17,0,0,1,584.34,150Z" transform="translate(-16.9 -17.38)"/><path class="cls-3" d="M750.08,378.4V357.3H735.64l-67.31-89.2c-3.82-5.06-18.28-9.05-32.41-9.05H131.08c-14.13,0-28.59,4-32.41,9.05L31.36,357.3H16.9v22.07h0c.48,5.92,9.88,10.21,24.71,10.21H725.37C741,389.58,750.6,384.81,750.08,378.4Z" transform="translate(-16.9 -17.38)"/><path class="cls-4" d="M98.67,245.89,18.84,351.69c-6.45,8.54,3.66,15.69,22.79,15.69H725.37c19.13,0,29.24-7.15,22.79-15.69l-79.83-105.8c-3.82-5-18.28-9-32.41-9H131.08C117,236.84,102.49,240.84,98.67,245.89Z" transform="translate(-16.9 -17.38)"/><polygon class="cls-5" points="658.41 343.48 74.8 343.48 146.13 223.1 587.07 223.1 658.41 343.48"/><path class="cls-6" d="M238.73,274.14l-8.63,24.2h94.07l4.11-29.75h-73C253,271.38,246.39,273.6,238.73,274.14Z" transform="translate(-16.9 -17.38)"/><path class="cls-6" d="M332.16,240.48H250.74l-7.22,20.25c7.06.5,12.09,2.62,12.59,5.33h72.52Z" transform="translate(-16.9 -17.38)"/><path class="cls-7" d="M249.29,267.32c.79-2.36-3.67-4.25-9.95-4.25s-12.12,1.89-13.05,4.25,3.5,4.35,9.91,4.35S248.49,269.71,249.29,267.32Z" transform="translate(-16.9 -17.38)"/><path class="cls-8" d="M277.92,256.73c.43-1.59-2.76-2.87-7.1-2.87s-8.29,1.28-8.78,2.87,2.68,2.91,7.09,2.91S277.48,258.33,277.92,256.73Z" transform="translate(-16.9 -17.38)"/><polygon class="cls-6" points="204.82 283.91 110.1 283.91 101.44 298.52 199.36 298.52 204.82 283.91"/><polygon class="cls-6" points="318.46 248.68 419.77 248.68 416.35 223.1 321.56 223.1 318.46 248.68"/><polygon class="cls-8" points="424.49 283.91 212.15 283.91 196.65 327.34 430.29 327.34 424.49 283.91"/><polygon class="cls-7" points="551.25 223.1 485.82 223.1 504.37 280.96 579.97 280.96 551.25 223.1"/><path class="cls-6" d="M146.37,268.59l-17.63,29.75h94.08l9.05-24.2c-7.27-.54-12.26-2.76-12.52-5.55Z" transform="translate(-16.9 -17.38)"/><path class="cls-6" d="M244.45,240.48H163l-15.16,25.58h72.52c2.48-2.71,9.06-4.83,16.49-5.33Z" transform="translate(-16.9 -17.38)"/><polygon class="cls-6" points="420.11 251.21 318.15 251.21 314.55 280.96 424.09 280.96 420.11 251.21"/><polygon class="cls-6" points="195.35 330.97 190.89 343.48 432.45 343.48 430.78 330.97 195.35 330.97"/><polygon class="cls-6" points="431.81 283.91 440.78 343.48 516.07 343.48 497.99 283.91 431.81 283.91"/><polygon class="cls-6" points="99.54 301.72 74.8 343.48 182.56 343.48 198.17 301.72 99.54 301.72"/><polygon class="cls-7" points="505.31 283.91 524.4 343.48 611 343.48 581.44 283.91 505.31 283.91"/><polygon class="cls-6" points="619.33 343.48 658.41 343.48 645.26 321.29 607.95 321.29 619.33 343.48"/><polygon class="cls-6" points="606.16 317.81 643.2 317.81 623.11 283.91 588.76 283.91 606.16 317.81"/><polygon class="cls-6" points="587.24 280.96 621.36 280.96 587.07 223.1 557.55 223.1 587.24 280.96"/><polygon class="cls-6" points="487.3 248.68 479.53 223.1 422.64 223.1 426.5 248.68 487.3 248.68"/><polygon class="cls-6" points="488.06 251.21 426.88 251.21 431.36 280.96 497.1 280.96 488.06 251.21"/><polygon class="cls-9" points="585.49 292.08 507.93 292.08 505.31 283.91 581.44 283.91 585.49 292.08"/><path class="cls-8" d="M148.57,281.61c-1.87,0-3.73.59-4.15,1.32s.76,1.33,2.65,1.33,3.75-.6,4.16-1.33S150.45,281.61,148.57,281.61Z" transform="translate(-16.9 -17.38)"/><path class="cls-8" d="M162.69,281.61c-1.87,0-3.71.59-4.11,1.32s.81,1.33,2.7,1.33,3.73-.6,4.11-1.33S164.57,281.61,162.69,281.61Z" transform="translate(-16.9 -17.38)"/><path class="cls-8" d="M176.81,281.61c-1.88,0-3.7.59-4.07,1.32s.86,1.33,2.74,1.33,3.71-.6,4.07-1.33S178.68,281.61,176.81,281.61Z" transform="translate(-16.9 -17.38)"/><path class="cls-8" d="M190.93,281.61c-1.88,0-3.68.59-4,1.32s.9,1.33,2.79,1.33,3.69-.6,4-1.33S192.8,281.61,190.93,281.61Z" transform="translate(-16.9 -17.38)"/><path class="cls-8" d="M205,281.61c-1.87,0-3.65.59-4,1.32s.94,1.33,2.83,1.33,3.67-.6,4-1.33S206.92,281.61,205,281.61Z" transform="translate(-16.9 -17.38)"/><path class="cls-8" d="M219.16,281.61c-1.88,0-3.63.59-3.93,1.32s1,1.33,2.88,1.33,3.65-.6,3.93-1.33S221,281.61,219.16,281.61Z" transform="translate(-16.9 -17.38)"/><polygon class="cls-8" points="587.24 280.96 621.36 280.96 605.56 254.29 573.55 254.29 587.24 280.96"/><polygon class="cls-10" points="110.2 295.58 115.32 286.7 196.91 286.7 193.45 295.58 110.2 295.58"/><polygon class="cls-10" points="371.18 246.36 370.94 225.16 410.72 225.16 413.22 246.36 371.18 246.36"/><polygon class="cls-10" points="321.62 278.24 324.22 253.59 353.49 253.59 352.69 278.24 321.62 278.24"/><polygon class="cls-10" points="270.09 278.24 275.65 253.59 304.7 253.59 300.91 278.24 270.09 278.24"/><polygon class="cls-10" points="447.96 339.92 442.47 306.93 497.78 306.93 507.27 339.92 447.96 339.92"/><polygon class="cls-10" points="441.07 298.52 439.47 288.93 492.6 288.93 495.36 298.52 441.07 298.52"/><polygon class="cls-10" points="84.62 339.92 104.91 304.75 189.88 304.75 176.18 339.92 84.62 339.92"/><polygon class="cls-10" points="625.22 339.92 617.11 324.59 639.74 324.59 648.59 339.92 625.22 339.92"/><polygon class="cls-10" points="611.83 314.61 597.07 286.7 617.89 286.7 633.99 314.61 611.83 314.61"/><polygon class="cls-10" points="576.25 247.35 564.51 225.16 582.39 225.16 595.19 247.35 576.25 247.35"/><polygon class="cls-10" points="432.39 246.36 430.57 235.47 477.22 235.47 480.35 246.36 432.39 246.36"/><polygon class="cls-10" points="437.69 278.24 434.56 259.41 484.11 259.41 489.53 278.24 437.69 278.24"/><polygon class="cls-10" points="120.2 278.24 200.2 278.24 203.51 269.73 125.11 269.73 120.2 278.24"/><polygon class="cls-10" points="190.64 253.59 134.42 253.59 129.89 261.45 187.2 261.45 190.64 253.59"/><polygon class="cls-10" points="248.12 253.59 226.64 261.45 224.79 266.88 261.4 266.88 264.76 253.59 248.12 253.59"/><polygon class="cls-10" points="180.24 240.07 187.39 225.16 220.88 225.16 215.07 240.07 180.24 240.07"/><polygon class="cls-10" points="171.53 225.16 150.82 225.16 138.59 246.36 160.47 246.36 171.53 225.16"/><polygon class="cls-10" points="239.02 225.16 236.52 232.47 273.98 232.47 270.6 246.36 305.81 246.36 309.07 225.16 239.02 225.16"/><polygon class="cls-10" points="220.91 278.24 223.81 269.73 260.68 269.73 258.53 278.24 220.91 278.24"/><path class="cls-11" d="M663.6,284.26c11.16,0,22.77,3.55,26,8s-3.38,8.34-15,8.34-23.36-3.77-26.22-8.34S652.44,284.26,663.6,284.26Z" transform="translate(-16.9 -17.38)"/><path class="cls-11" d="M99.16,279.61,81.07,305.77c-1.23,1.78,1.3,3.24,5.66,3.24s8.86-1.46,10-3.24l17.15-26.16c1-1.56-1.43-2.82-5.47-2.82S100.24,278.05,99.16,279.61Z" transform="translate(-16.9 -17.38)"/><ellipse class="cls-12" cx="171.53" cy="281.07" rx="30.3" ry="7.99"/><path class="cls-13" d="M188.43,178.59a47.88,47.88,0,0,0-47.88,47.88c0,26.45,47.88,72,47.88,72s47.87-45.53,47.87-72A47.88,47.88,0,0,0,188.43,178.59Zm0,74.75a26.87,26.87,0,1,1,26.86-26.87A26.87,26.87,0,0,1,188.43,253.34Z" transform="translate(-16.9 -17.38)"/><path class="cls-14" d="M188.43,194.39a32.09,32.09,0,1,0,32.08,32.08A32.09,32.09,0,0,0,188.43,194.39Zm0,53.71a21.63,21.63,0,1,1,21.62-21.63A21.62,21.62,0,0,1,188.43,248.1Z" transform="translate(-16.9 -17.38)"/><path class="cls-12" d="M554.65,356.55c0,3.15-9.71,5.71-21.68,5.71s-21.68-2.56-21.68-5.71,9.71-5.72,21.68-5.72S554.65,353.39,554.65,356.55Z" transform="translate(-16.9 -17.38)"/><path class="cls-13" d="M533,270.79a34.26,34.26,0,0,0-34.26,34.26c0,18.92,34.26,51.5,34.26,51.5s34.25-32.58,34.25-51.5A34.25,34.25,0,0,0,533,270.79Zm0,53.48a19.22,19.22,0,1,1,19.22-19.22A19.22,19.22,0,0,1,533,324.27Z" transform="translate(-16.9 -17.38)"/><path class="cls-14" d="M533,282.09a23,23,0,1,0,22.95,23A23,23,0,0,0,533,282.09Zm0,38.43a15.48,15.48,0,1,1,15.47-15.47A15.48,15.48,0,0,1,533,320.52Z" transform="translate(-16.9 -17.38)"/><ellipse class="cls-12" cx="354.8" cy="243.37" rx="61.53" ry="16.22"/><path class="cls-13" d="M371.7,17.38a97.22,97.22,0,0,0-97.22,97.22c0,53.69,97.22,146.15,97.22,146.15s97.21-92.46,97.21-146.15A97.22,97.22,0,0,0,371.7,17.38Zm0,151.77a54.55,54.55,0,1,1,54.54-54.55A54.55,54.55,0,0,1,371.7,169.15Z" transform="translate(-16.9 -17.38)"/><path class="cls-14" d="M371.7,49.45a65.15,65.15,0,1,0,65.14,65.15A65.15,65.15,0,0,0,371.7,49.45Zm0,109.06a43.92,43.92,0,1,1,43.91-43.91A43.91,43.91,0,0,1,371.7,158.51Z" transform="translate(-16.9 -17.38)"/><path class="cls-2" d="M476.05,109.07a23.67,23.67,0,0,0-23.67,23.67h47.35A23.68,23.68,0,0,0,476.05,109.07Z" transform="translate(-16.9 -17.38)"/><path class="cls-2" d="M366.82,118.07a14.67,14.67,0,0,0-14.67,14.67h29.34A14.67,14.67,0,0,0,366.82,118.07Z" transform="translate(-16.9 -17.38)"/><path class="cls-2" d="M416.94,97.3a35.45,35.45,0,0,0-35.45,35.44h70.89A35.44,35.44,0,0,0,416.94,97.3Z" transform="translate(-16.9 -17.38)"/><path class="cls-2" d="M191.6,126.23a10.33,10.33,0,0,0-10.33,10.34h20.66A10.33,10.33,0,0,0,191.6,126.23Z" transform="translate(-16.9 -17.38)"/><path class="cls-2" d="M162.34,117.64a18.93,18.93,0,0,0-18.92,18.93h37.85A18.94,18.94,0,0,0,162.34,117.64Z" transform="translate(-16.9 -17.38)"/><path class="cls-2" d="M256.73,58A10.34,10.34,0,0,0,246.4,68.38h20.67A10.34,10.34,0,0,0,256.73,58Z" transform="translate(-16.9 -17.38)"/><path class="cls-2" d="M227.47,49.45a18.92,18.92,0,0,0-18.92,18.93H246.4A18.92,18.92,0,0,0,227.47,49.45Z" transform="translate(-16.9 -17.38)"/><path class="cls-2" d="M497.81,26a10.34,10.34,0,0,0-10.34,10.34h20.67A10.33,10.33,0,0,0,497.81,26Z" transform="translate(-16.9 -17.38)"/><path class="cls-2" d="M468.55,17.38a18.93,18.93,0,0,0-18.93,18.93h37.85A18.92,18.92,0,0,0,468.55,17.38Z" transform="translate(-16.9 -17.38)"/><path class="cls-2" d="M262.24,164.59a8,8,0,0,0-8,8h16A8,8,0,0,0,262.24,164.59Z" transform="translate(-16.9 -17.38)"/><path class="cls-2" d="M239.66,158a14.6,14.6,0,0,0-14.61,14.6h29.22A14.6,14.6,0,0,0,239.66,158Z" transform="translate(-16.9 -17.38)"/><path class="cls-2" d="M572.56,95.45a10.32,10.32,0,0,0-10.33,10.33H582.9A10.33,10.33,0,0,0,572.56,95.45Z" transform="translate(-16.9 -17.38)"/><path class="cls-2" d="M543.3,86.86a18.92,18.92,0,0,0-18.92,18.92h37.85A18.93,18.93,0,0,0,543.3,86.86Z" transform="translate(-16.9 -17.38)"/><path class="cls-2" d="M241.68,135.92h-1.37v-1.37a.65.65,0,0,0-.65-.65h0a.65.65,0,0,0-.65.65v1.37h-1.37a.65.65,0,0,0,0,1.3H239v1.37a.65.65,0,0,0,.65.64h0a.65.65,0,0,0,.65-.64v-1.37h1.37a.65.65,0,0,0,0-1.3Z" transform="translate(-16.9 -17.38)"/><path class="cls-2" d="M274.9,152.13h-1.37v-1.37a.65.65,0,0,0-.65-.65h0a.65.65,0,0,0-.64.65v1.37h-1.37a.65.65,0,1,0,0,1.29h1.37v1.37a.65.65,0,0,0,.64.65h0a.65.65,0,0,0,.65-.65v-1.37h1.37a.65.65,0,1,0,0-1.29Z" transform="translate(-16.9 -17.38)"/><path class="cls-2" d="M354.17,93.3H352.8V91.93a.65.65,0,0,0-.65-.65h0a.65.65,0,0,0-.65.65V93.3h-1.37a.65.65,0,1,0,0,1.29h1.37V96a.65.65,0,0,0,.65.65h0a.65.65,0,0,0,.65-.65V94.59h1.37a.65.65,0,0,0,0-1.29Z" transform="translate(-16.9 -17.38)"/><path class="cls-2" d="M385.52,100.32h-1.37V99a.65.65,0,0,0-.65-.64h0a.65.65,0,0,0-.65.64v1.37h-1.37a.65.65,0,1,0,0,1.3h1.37V103a.65.65,0,0,0,.65.65h0a.65.65,0,0,0,.65-.65v-1.37h1.37a.65.65,0,0,0,0-1.3Z" transform="translate(-16.9 -17.38)"/><path class="cls-2" d="M486.33,90.63H485V89.26a.65.65,0,0,0-.64-.65h0a.65.65,0,0,0-.65.65v1.37H482.3a.65.65,0,0,0,0,1.3h1.37V93.3a.65.65,0,0,0,.65.64h0a.64.64,0,0,0,.64-.64V91.93h1.37a.65.65,0,1,0,0-1.3Z" transform="translate(-16.9 -17.38)"/><path class="cls-2" d="M519.51,78.25h-1.37V76.88a.65.65,0,0,0-.65-.65h0a.65.65,0,0,0-.64.65v1.37h-1.37a.65.65,0,1,0,0,1.3h1.37v1.37a.65.65,0,0,0,.64.65h0a.65.65,0,0,0,.65-.65V79.55h1.37a.65.65,0,0,0,0-1.3Z" transform="translate(-16.9 -17.38)"/><path class="cls-2" d="M464.05,51.47h-1.37V50.1a.65.65,0,0,0-.65-.65h0a.65.65,0,0,0-.65.65v1.37H460a.65.65,0,0,0,0,1.3h1.37v1.37a.65.65,0,0,0,.65.64h0a.65.65,0,0,0,.65-.64V52.77h1.37a.65.65,0,0,0,0-1.3Z" transform="translate(-16.9 -17.38)"/><path class="cls-2" d="M493.79,66.15h-1.37V64.78a.65.65,0,0,0-.65-.64h0a.65.65,0,0,0-.65.64v1.37h-1.37a.65.65,0,1,0,0,1.3h1.37v1.37a.65.65,0,0,0,.65.65h0a.65.65,0,0,0,.65-.65V67.45h1.37a.65.65,0,0,0,0-1.3Z" transform="translate(-16.9 -17.38)"/><path class="cls-2" d="M560.07,63.49H558.7V62.12a.65.65,0,0,0-.65-.65h0a.65.65,0,0,0-.65.65v1.37H556a.65.65,0,1,0,0,1.29h1.37v1.37a.65.65,0,0,0,.65.65h0a.65.65,0,0,0,.65-.65V64.78h1.37a.65.65,0,1,0,0-1.29Z" transform="translate(-16.9 -17.38)"/><path class="cls-2" d="M481,157.86h-1.37v-1.37a.65.65,0,0,0-.65-.64h0a.65.65,0,0,0-.65.64v1.37h-1.37a.65.65,0,0,0,0,1.3h1.37v1.37a.65.65,0,0,0,.65.65h0a.65.65,0,0,0,.65-.65v-1.37H481a.65.65,0,0,0,0-1.3Z" transform="translate(-16.9 -17.38)"/><path class="cls-2" d="M512,149.46h-1.37v-1.37a.65.65,0,0,0-.65-.65h0a.65.65,0,0,0-.64.65v1.37H508a.65.65,0,0,0,0,1.3h1.37v1.37a.64.64,0,0,0,.64.64h0a.65.65,0,0,0,.65-.64v-1.37H512a.65.65,0,0,0,0-1.3Z" transform="translate(-16.9 -17.38)"/><path class="cls-2" d="M443,204.2h-1.37v-1.37a.65.65,0,0,0-.65-.65h0a.65.65,0,0,0-.65.65v1.37H439a.65.65,0,1,0,0,1.29h1.37v1.37a.65.65,0,0,0,.65.65h0a.65.65,0,0,0,.65-.65v-1.37H443a.65.65,0,0,0,0-1.29Z" transform="translate(-16.9 -17.38)"/><path class="cls-2" d="M532.32,183.94H531v-1.37a.65.65,0,0,0-.65-.65h0a.65.65,0,0,0-.65.65v1.37h-1.37a.65.65,0,0,0-.64.65.65.65,0,0,0,.64.65h1.37v1.36a.65.65,0,0,0,.65.65h0a.65.65,0,0,0,.65-.65v-1.36h1.37a.65.65,0,0,0,0-1.3Z" transform="translate(-16.9 -17.38)"/><path class="cls-2" d="M542.65,132.09h-1.37v-1.37a.65.65,0,0,0-.64-.65h0a.66.66,0,0,0-.65.65v1.37h-1.37a.65.65,0,0,0,0,1.3H540v1.37a.65.65,0,0,0,.65.65h0a.65.65,0,0,0,.64-.65v-1.37h1.37a.65.65,0,0,0,0-1.3Z" transform="translate(-16.9 -17.38)"/><path class="cls-2" d="M224.1,103h-1.37v-1.37a.65.65,0,0,0-.65-.65h0a.65.65,0,0,0-.65.65V103h-1.37a.65.65,0,0,0,0,1.3h1.37v1.37a.66.66,0,0,0,.65.65h0a.66.66,0,0,0,.65-.65v-1.37h1.37a.65.65,0,1,0,0-1.3Z" transform="translate(-16.9 -17.38)"/><path class="cls-2" d="M272.24,46.14h-1.37V44.77a.65.65,0,0,0-.65-.65h0a.65.65,0,0,0-.65.65v1.37H268.2a.65.65,0,1,0,0,1.29h1.37V48.8a.65.65,0,0,0,.65.65h0a.65.65,0,0,0,.65-.65V47.43h1.37a.65.65,0,0,0,0-1.29Z" transform="translate(-16.9 -17.38)"/><path class="cls-2" d="M182.32,86.21H181V84.84a.66.66,0,0,0-.65-.65h0a.65.65,0,0,0-.65.65v1.37h-1.37a.65.65,0,1,0,0,1.3h1.37v1.37a.65.65,0,0,0,.65.64h0a.65.65,0,0,0,.65-.64V87.51h1.36a.65.65,0,0,0,0-1.3Z" transform="translate(-16.9 -17.38)"/><path class="cls-2" d="M205.7,149.36h-1.37V148a.65.65,0,0,0-.65-.65h0a.65.65,0,0,0-.65.65v1.37h-1.37a.65.65,0,0,0,0,1.3H203V152a.65.65,0,0,0,.65.65h0a.65.65,0,0,0,.65-.65v-1.37h1.37a.65.65,0,0,0,0-1.3Z" transform="translate(-16.9 -17.38)"/><path class="cls-2" d="M168.82,161.72h-1.37v-1.37a.65.65,0,0,0-.65-.64h0a.65.65,0,0,0-.65.64v1.37h-1.37a.65.65,0,1,0,0,1.3h1.37v1.37a.65.65,0,0,0,.65.65h0a.65.65,0,0,0,.65-.65V163h1.37a.65.65,0,0,0,0-1.3Z" transform="translate(-16.9 -17.38)"/><path class="cls-2" d="M263.69,193.74h-1.37v-1.37a.65.65,0,0,0-.65-.65h0a.65.65,0,0,0-.65.65v1.37h-1.37a.65.65,0,0,0,0,1.3H261v1.37a.65.65,0,0,0,.65.65h0a.65.65,0,0,0,.65-.65V195h1.37a.65.65,0,0,0,0-1.3Z" transform="translate(-16.9 -17.38)"/></g></g></svg>