<svg xmlns="http://www.w3.org/2000/svg" viewBox="0 0 456.68 443.27"><defs><style>.cls-1{fill:#15ba87;}.cls-12,.cls-2{fill:#9fbfff;}.cls-10,.cls-2{opacity:0.47;}.cls-3,.cls-9{fill:#cff9eb;}.cls-3,.cls-7{opacity:0.56;}.cls-4{fill:#4e69ff;}.cls-5{fill:#1b1b25;}.cls-18,.cls-6{opacity:0.18;}.cls-8{fill:#30f2b6;}.cls-11{opacity:0.31;}.cls-13{opacity:0.61;}.cls-14,.cls-18,.cls-19,.cls-23,.cls-25{fill:#fff;}.cls-15{opacity:0.36;}.cls-16{fill:#292930;}.cls-17{fill:#c0f9e6;}.cls-19{opacity:0.1;}.cls-20{fill:#0cd89e;}.cls-21{fill:#101011;}.cls-22{fill:#282830;}.cls-23{opacity:0.89;}.cls-24{opacity:0.81;}.cls-25{opacity:0.44;}</style></defs><title>img2</title><g id="BACKGROUND"><circle class="cls-1" cx="440.61" cy="381.92" r="3.5"/><circle class="cls-2" cx="422.36" cy="425.22" r="3.5"/><circle class="cls-3" cx="7.4" cy="61.84" r="2.72"/><path class="cls-4" d="M244.59,51.74a4.86,4.86,0,1,1-4.86-4.85A4.86,4.86,0,0,1,244.59,51.74Z" transform="translate(-27.62 -24.64)"/><path class="cls-1" d="M39.59,123.42A4.58,4.58,0,1,1,35,118.85,4.58,4.58,0,0,1,39.59,123.42Z" transform="translate(-27.62 -24.64)"/><circle class="cls-1" cx="42.33" cy="55.95" r="1.72"/><path class="cls-3" d="M437.19,72.56A2.72,2.72,0,1,1,441,71.8,2.72,2.72,0,0,1,437.19,72.56Z" transform="translate(-27.62 -24.64)"/><path class="cls-3" d="M403.35,48.36a4.58,4.58,0,1,1,6.34-1.28A4.57,4.57,0,0,1,403.35,48.36Z" transform="translate(-27.62 -24.64)"/><path class="cls-5" d="M430,127.22a1.72,1.72,0,1,1,2.38-.48A1.71,1.71,0,0,1,430,127.22Z" transform="translate(-27.62 -24.64)"/><g class="cls-6"><path class="cls-1" d="M438.22,410.8c19.44-23.32,32.9-55.62,32.51-86.36-.41-31.89-11.89-61.43-6.41-94.14,3.13-18.7,10.4-36.71,11.48-55.64C480.92,85.2,338.85,7.57,281.18,91.24c-4,5.74-7.24,12.09-12.45,16.71a28.48,28.48,0,0,1-24.27,6.45c-13.71-2.85-25.2-13.59-38.49-18.26A129.12,129.12,0,0,0,168.59,89a144.79,144.79,0,0,0-73.16,16.88C50.82,129.54,21.86,176.1,28.59,227.26c4,30.27,20.73,57.37,39.71,81.29,36.3,45.75,82.16,83.61,132.88,112.57,41,23.4,86.78,41.4,134,39.85A139.71,139.71,0,0,0,438.22,410.8Z" transform="translate(-27.62 -24.64)"/></g><g class="cls-7"><path class="cls-8" d="M469,321.12c5.12-27.82,1.26-60.19-13.11-85-14.92-25.7-37.75-44.42-48.27-73.47-6-16.61-8.35-34.55-16.13-50.41-36.77-74.95-187.58-73-196.12,21.32-.58,6.47-.34,13.12-2.46,19.25a26.53,26.53,0,0,1-16.75,16.35c-12.42,4-26.67.49-39.59,2.78A120.14,120.14,0,0,0,103,183.31a134.9,134.9,0,0,0-51.66,47.17c-25.4,39.57-27.61,90.61,1.26,129,17.08,22.75,43.07,37.08,69.41,47.82,50.39,20.52,104.93,30.28,159.34,30.58,44,.25,89.37-6.1,126.94-28.93A130.18,130.18,0,0,0,469,321.12Z" transform="translate(-27.62 -24.64)"/></g><g class="cls-7"><path class="cls-9" d="M35.86,434.08c-1.78,16.46,12.38,31.48,31.62,33.56s49.65-8.13,51.43-24.58-28.27-20.6-44.26-30.37C52.35,399.06,37.64,417.63,35.86,434.08Z" transform="translate(-27.62 -24.64)"/></g><g class="cls-10"><path class="cls-1" d="M419,305.62c3.36-18.25.83-39.49-8.6-55.74-9.78-16.85-24.76-29.13-31.66-48.19-3.95-10.9-5.48-22.67-10.58-33.07-24.12-49.17-123-47.86-128.65,14-.38,4.24-.23,8.6-1.62,12.63A17.39,17.39,0,0,1,227,206c-8.15,2.59-17.49.32-26,1.82a78.82,78.82,0,0,0-22,7.44,88.42,88.42,0,0,0-33.89,30.94c-16.66,26-18.11,59.44.83,84.65,11.2,14.92,28.25,24.33,45.53,31.37,33.06,13.46,68.83,19.86,104.52,20.06,28.84.16,58.63-4,83.27-19A85.4,85.4,0,0,0,419,305.62Z" transform="translate(-27.62 -24.64)"/></g><g class="cls-7"><path class="cls-9" d="M451.06,153.66a6.29,6.29,0,1,1-4.41-7.73A6.3,6.3,0,0,1,451.06,153.66Z" transform="translate(-27.62 -24.64)"/></g><g class="cls-7"><circle class="cls-9" cx="190.65" cy="46.89" r="22.25" transform="translate(37.29 173.03) rotate(-63.99)"/></g><g class="cls-7"><path class="cls-9" d="M484.2,242a6.91,6.91,0,1,1-5.62-8A6.91,6.91,0,0,1,484.2,242Z" transform="translate(-27.62 -24.64)"/></g><g class="cls-7"><path class="cls-9" d="M470,48.08a6.91,6.91,0,1,1-5.61-8A6.91,6.91,0,0,1,470,48.08Z" transform="translate(-27.62 -24.64)"/></g><g class="cls-11"><path class="cls-12" d="M64.15,183.84a4.11,4.11,0,1,1-3.34-4.75A4.1,4.1,0,0,1,64.15,183.84Z" transform="translate(-27.62 -24.64)"/></g></g><g id="OBJECTS"><g class="cls-13"><path class="cls-14" d="M345.51,289.54,359,286a5.22,5.22,0,0,1,6.37,3.72l2.72,10.44a45.44,45.44,0,0,1,11.41,1.58l5.46-9.31a5.21,5.21,0,0,1,7.13-1.86l12,7.05a5.22,5.22,0,0,1,1.86,7.13l-5.45,9.31a46.42,46.42,0,0,1,7,9.19l10.43-2.73a5.22,5.22,0,0,1,6.36,3.73l3.53,13.5a5.22,5.22,0,0,1-3.73,6.36l-10.43,2.72a46.06,46.06,0,0,1-1.59,11.42l9.31,5.45a5.22,5.22,0,0,1,1.87,7.14l-7.05,12a5.23,5.23,0,0,1-7.14,1.87l-9.31-5.46a46,46,0,0,1-9.18,7l2.72,10.44a5.21,5.21,0,0,1-3.72,6.36l-13.5,3.52a5.21,5.21,0,0,1-6.36-3.72L367,392.42a45.9,45.9,0,0,1-11.41-1.58l-5.46,9.31A5.21,5.21,0,0,1,343,402L331,395a5.21,5.21,0,0,1-1.86-7.13l5.45-9.32a46.07,46.07,0,0,1-7-9.18l-10.43,2.73a5.22,5.22,0,0,1-6.36-3.73l-3.53-13.5a5.23,5.23,0,0,1,3.73-6.36l10.43-2.73A45.91,45.91,0,0,1,323,334.33l-9.32-5.45a5.23,5.23,0,0,1-1.86-7.14l7.06-12a5.21,5.21,0,0,1,7.13-1.87l9.31,5.46a45.61,45.61,0,0,1,9.18-7l-2.72-10.44A5.21,5.21,0,0,1,345.51,289.54Zm35.12,15-.89-.26a43.42,43.42,0,0,0-12.55-1.74h-.92l-3.19-12.22a2.85,2.85,0,0,0-3.47-2l-13.5,3.53a2.85,2.85,0,0,0-2,3.46l3.19,12.22-.81.44a43.68,43.68,0,0,0-10.09,7.65l-.65.66-10.9-6.38a2.85,2.85,0,0,0-3.89,1l-7.05,12a2.85,2.85,0,0,0,1,3.89l10.9,6.39-.26.88a43.77,43.77,0,0,0-1.74,12.55v.92l-12.21,3.19a2.84,2.84,0,0,0-2,3.47l3.52,13.5a2.84,2.84,0,0,0,3.47,2l12.21-3.19.45.81a43.25,43.25,0,0,0,7.65,10.1l.66.65L331.13,389a2.85,2.85,0,0,0,1,3.89l12,7a2.85,2.85,0,0,0,3.89-1l6.38-10.9.89.26a43.42,43.42,0,0,0,12.55,1.74h.92L372,402.26a2.86,2.86,0,0,0,3.47,2l13.5-3.53a2.85,2.85,0,0,0,2-3.47l-3.19-12.21.81-.45A43.13,43.13,0,0,0,398.72,377l.65-.65,10.9,6.38a2.84,2.84,0,0,0,3.89-1l7-12a2.85,2.85,0,0,0-1-3.89l-10.9-6.39.26-.89A43.3,43.3,0,0,0,411.29,346V345l12.21-3.19a2.83,2.83,0,0,0,2-3.46L422,324.87a2.84,2.84,0,0,0-3.47-2L406.33,326l-.45-.81a43.25,43.25,0,0,0-7.65-10.1l-.66-.65,6.39-10.9a2.84,2.84,0,0,0-1-3.88l-12-7.06a2.85,2.85,0,0,0-3.89,1Zm-21.42,9.85a33,33,0,1,1-23.57,40.23A33,33,0,0,1,359.21,314.4Zm16.07,61.51A30.6,30.6,0,1,0,337.94,354,30.64,30.64,0,0,0,375.28,375.91Z" transform="translate(-27.62 -24.64)"/><path class="cls-14" d="M84.53,187.68,98,184.15a5.22,5.22,0,0,1,6.36,3.73l2.73,10.43a46.37,46.37,0,0,1,11.41,1.58l5.45-9.31a5.23,5.23,0,0,1,7.14-1.86l12,7.05a5.23,5.23,0,0,1,1.86,7.14l-5.46,9.31a45.33,45.33,0,0,1,7,9.18L157,218.68a5.21,5.21,0,0,1,6.36,3.72l3.53,13.5a5.22,5.22,0,0,1-3.73,6.36L152.68,245a45.44,45.44,0,0,1-1.58,11.41l9.31,5.46a5.21,5.21,0,0,1,1.86,7.13l-7.05,12a5.22,5.22,0,0,1-7.13,1.86l-9.31-5.45a46,46,0,0,1-9.19,6.95l2.73,10.44a5.22,5.22,0,0,1-3.73,6.36l-13.5,3.53a5.23,5.23,0,0,1-6.36-3.73L106,290.55A45.58,45.58,0,0,1,94.59,289l-5.45,9.31A5.22,5.22,0,0,1,82,300.15l-12-7.06A5.22,5.22,0,0,1,68.1,286l5.46-9.31a46.27,46.27,0,0,1-7-9.18l-10.43,2.72a5.22,5.22,0,0,1-6.37-3.73L46.28,253A5.21,5.21,0,0,1,50,246.6l10.43-2.72A46.37,46.37,0,0,1,62,232.47L52.71,227a5.21,5.21,0,0,1-1.86-7.13l7-12A5.21,5.21,0,0,1,65,206l9.31,5.45a45.7,45.7,0,0,1,9.18-7L80.8,194A5.22,5.22,0,0,1,84.53,187.68Zm35.12,15-.89-.26a43.77,43.77,0,0,0-12.55-1.74h-.92l-3.19-12.21a2.85,2.85,0,0,0-3.47-2L85.13,190a2.84,2.84,0,0,0-2,3.47l3.19,12.21-.81.45a43.46,43.46,0,0,0-10.1,7.65l-.65.66L63.84,208A2.85,2.85,0,0,0,60,209l-7.06,12a2.84,2.84,0,0,0,1,3.88l10.9,6.39-.26.89a43.35,43.35,0,0,0-1.74,12.54v.93L50.61,248.9a2.84,2.84,0,0,0-2,3.46l3.53,13.51a2.85,2.85,0,0,0,3.47,2l12.21-3.19.44.81a43.45,43.45,0,0,0,7.66,10.09l.66.65-6.39,10.9a2.85,2.85,0,0,0,1,3.89l12,7.05a2.83,2.83,0,0,0,3.88-1l6.39-10.89.89.25a43,43,0,0,0,12.54,1.74h.93L111,300.39a2.83,2.83,0,0,0,3.46,2L128,298.9a2.84,2.84,0,0,0,2-3.47l-3.18-12.22.81-.44a43.4,43.4,0,0,0,10.09-7.65l.65-.66,10.9,6.38a2.84,2.84,0,0,0,3.89-1l7-12a2.85,2.85,0,0,0-1-3.89l-10.89-6.38.25-.89a43.42,43.42,0,0,0,1.74-12.55v-.92L162.52,240a2.85,2.85,0,0,0,2-3.47L161,223a2.84,2.84,0,0,0-3.47-2l-12.22,3.19-.44-.81a43.68,43.68,0,0,0-7.65-10.09l-.66-.65,6.38-10.9a2.85,2.85,0,0,0-1-3.89l-12-7a2.85,2.85,0,0,0-3.89,1Zm-21.42,9.85a33,33,0,1,1-23.57,40.23A33,33,0,0,1,98.23,212.53ZM114.29,274A30.6,30.6,0,1,0,77,252.17,30.63,30.63,0,0,0,114.29,274Z" transform="translate(-27.62 -24.64)"/><path class="cls-14" d="M355.9,251.77l6.45,1.59a25.12,25.12,0,0,0,1.12,7.3l-5.69,3.45a2.29,2.29,0,0,0-.77,3.14l4.1,6.78a2.29,2.29,0,0,0,3.15.77l5.68-3.44a25.48,25.48,0,0,0,6,4.38l-1.59,6.45A2.29,2.29,0,0,0,376,285l7.7,1.89a2.28,2.28,0,0,0,2.76-1.68l1.59-6.45a25.54,25.54,0,0,0,7.31-1.12l3.44,5.69a2.29,2.29,0,0,0,3.14.77l6.78-4.11a2.28,2.28,0,0,0,.77-3.14L406,271.12a25.43,25.43,0,0,0,4.38-5.95l6.45,1.59a2.29,2.29,0,0,0,2.77-1.68l1.89-7.7a2.29,2.29,0,0,0-1.67-2.76L413.4,253a25.19,25.19,0,0,0-1.12-7.31l5.69-3.44a2.28,2.28,0,0,0,.77-3.14l-4.1-6.78a2.28,2.28,0,0,0-3.14-.77L405.81,235a25.48,25.48,0,0,0-6-4.38l1.59-6.45a2.29,2.29,0,0,0-1.68-2.77l-7.69-1.89a2.29,2.29,0,0,0-2.77,1.67l-1.59,6.46a25.07,25.07,0,0,0-7.3,1.12L377,223.1a2.28,2.28,0,0,0-3.14-.77l-6.78,4.1a2.28,2.28,0,0,0-.77,3.14l3.44,5.69a25.48,25.48,0,0,0-4.38,6l-6.45-1.59a2.29,2.29,0,0,0-2.77,1.68L354.22,249A2.29,2.29,0,0,0,355.9,251.77Zm36.28-16.11a18.06,18.06,0,1,1-21.84,13.22A18.05,18.05,0,0,1,392.18,235.66Z" transform="translate(-27.62 -24.64)"/><g class="cls-15"><path class="cls-4" d="M434.43,319.61a2.5,2.5,0,0,1-.54-.07L428,318.08a2.25,2.25,0,0,1-1.65-2.73l1.13-4.59a20,20,0,0,1-4.08-3l-4.05,2.45a2.26,2.26,0,0,1-3.1-.76l-3.16-5.22a2.26,2.26,0,0,1,.76-3.1l4.05-2.46a20.19,20.19,0,0,1-.77-5l-4.59-1.13a2.19,2.19,0,0,1-1.39-1,2.23,2.23,0,0,1-.27-1.71l1.46-5.92a2.22,2.22,0,0,1,1-1.4,2.27,2.27,0,0,1,1.71-.26l4.59,1.13a20,20,0,0,1,3-4.08l-2.46-4a2.3,2.3,0,0,1-.26-1.72,2.26,2.26,0,0,1,1-1.39l5.22-3.16a2.27,2.27,0,0,1,3.1.76l2.45,4a20.19,20.19,0,0,1,5-.77l1.13-4.59a2.27,2.27,0,0,1,2.74-1.65l5.92,1.45a2.28,2.28,0,0,1,1.66,2.74L447,275.55a19.63,19.63,0,0,1,4.07,3l4-2.45a2.24,2.24,0,0,1,3.1.76l3.16,5.22a2.23,2.23,0,0,1,.27,1.71,2.26,2.26,0,0,1-1,1.39l-4,2.45a19.73,19.73,0,0,1,.77,5l4.59,1.13a2.26,2.26,0,0,1,1.66,2.74l-1.46,5.92a2.19,2.19,0,0,1-1,1.39,2.24,2.24,0,0,1-1.71.27L454.84,303a20.27,20.27,0,0,1-3,4.07l2.45,4.05a2.24,2.24,0,0,1,.26,1.71,2.27,2.27,0,0,1-1,1.4l-5.22,3.16a2.27,2.27,0,0,1-3.11-.77l-2.45-4a20.18,20.18,0,0,1-5,.76l-1.13,4.59A2.26,2.26,0,0,1,434.43,319.61ZM423.51,306.5l.27.28a19.14,19.14,0,0,0,4.47,3.28l.34.18-1.31,5.35a1.26,1.26,0,0,0,.92,1.52l5.93,1.46a1.22,1.22,0,0,0,.95-.15,1.23,1.23,0,0,0,.57-.77L437,312.3h.39a19.2,19.2,0,0,0,5.47-.84l.38-.12,2.85,4.71a1.26,1.26,0,0,0,1.73.43l5.22-3.16a1.26,1.26,0,0,0,.42-1.73l-2.85-4.71.28-.28a19.16,19.16,0,0,0,3.28-4.46l.18-.35,5.35,1.32a1.32,1.32,0,0,0,.95-.15,1.23,1.23,0,0,0,.57-.78l1.46-5.92a1.25,1.25,0,0,0-.15-1,1.26,1.26,0,0,0-.78-.57l-5.34-1.31V293a19.21,19.21,0,0,0-.84-5.48l-.12-.37,4.71-2.85a1.27,1.27,0,0,0,.58-.78,1.29,1.29,0,0,0-.15-1l-3.16-5.21a1.23,1.23,0,0,0-.78-.57,1.27,1.27,0,0,0-.95.14L451,279.8l-.28-.27a18.73,18.73,0,0,0-4.47-3.28l-.34-.19,1.31-5.34a1.26,1.26,0,0,0-.92-1.53l-5.92-1.45a1.29,1.29,0,0,0-1,.14,1.25,1.25,0,0,0-.57.78L437.5,274h-.39a18.87,18.87,0,0,0-5.48.84l-.37.11-2.85-4.71a1.28,1.28,0,0,0-1.74-.42L421.46,273a1.25,1.25,0,0,0-.58.77,1.29,1.29,0,0,0,.15,1l2.85,4.71-.27.28a18.88,18.88,0,0,0-3.28,4.46l-.19.34-5.34-1.31a1.25,1.25,0,0,0-1,.15,1.23,1.23,0,0,0-.57.78l-1.45,5.92a1.25,1.25,0,0,0,.92,1.52l5.35,1.32v.39a18.92,18.92,0,0,0,.84,5.48l.11.37L414.33,302a1.25,1.25,0,0,0-.57.78,1.22,1.22,0,0,0,.15.95l3.15,5.22a1.29,1.29,0,0,0,1.74.43Zm13.72,1.05a14,14,0,0,1-3.43-.42,14.4,14.4,0,0,1,6.87-28h0a14.4,14.4,0,0,1-3.44,28.38Zm0-27.8a13.41,13.41,0,1,0,3.22.39h0A13.63,13.63,0,0,0,437.21,279.75Z" transform="translate(-27.62 -24.64)"/></g></g><path class="cls-16" d="M309.43,369.68l-108,46.55A17.76,17.76,0,0,1,178.06,407L78.8,176.68a17.77,17.77,0,0,1,9.29-23.35l108-46.56a17.76,17.76,0,0,1,23.35,9.29l99.26,230.26A17.78,17.78,0,0,1,309.43,369.68Z" transform="translate(-27.62 -24.64)"/><path class="cls-14" d="M296,361.39,204,401a17.77,17.77,0,0,1-23.35-9.29L89.94,181.29a17.77,17.77,0,0,1,9.28-23.36l92-39.65a17.77,17.77,0,0,1,23.35,9.29L305.29,338A17.79,17.79,0,0,1,296,361.39Z" transform="translate(-27.62 -24.64)"/><path class="cls-17" d="M293.42,355.4l-92,39.65c-9,3.89-19.29.14-23-8.38L92.77,187.85c-3.67-8.51.66-18.56,9.67-22.45l92-39.65c9-3.89,19.29-.13,23,8.38L303.1,333C306.77,341.46,302.43,351.52,293.42,355.4Z" transform="translate(-27.62 -24.64)"/><path class="cls-16" d="M179.36,138.38l-54.62,23.54a6.87,6.87,0,0,1-9-3.59l-3.11-6.82,67.23-29.39,3.13,7.22A6.87,6.87,0,0,1,179.36,138.38Z" transform="translate(-27.62 -24.64)"/><path class="cls-14" d="M130.4,154.59a3.57,3.57,0,1,1,3.27-5h0a3.58,3.58,0,0,1-1.86,4.69A3.53,3.53,0,0,1,130.4,154.59Zm0-6.14a2.57,2.57,0,1,0,2.36,1.56h0A2.56,2.56,0,0,0,130.39,148.45Z" transform="translate(-27.62 -24.64)"/><path class="cls-14" d="M141.13,149a2.79,2.79,0,0,1-2.57-1.69,2.74,2.74,0,0,1,0-2.14,2.81,2.81,0,0,1,1.49-1.54l26.15-11.27a2.83,2.83,0,0,1,2.14,0,2.8,2.8,0,0,1,.07,5.17l-26.14,11.27A2.73,2.73,0,0,1,141.13,149Zm26.14-15.87a1.78,1.78,0,0,0-.71.15l-26.14,11.27a1.8,1.8,0,0,0,1.42,3.3L168,136.6a1.8,1.8,0,0,0-.05-3.32A2,2,0,0,0,167.27,133.15Z" transform="translate(-27.62 -24.64)"/><polygon class="cls-18" points="192.23 115.2 93.02 227.88 104.94 255.54 201.38 136.42 192.23 115.2"/><polygon class="cls-19" points="208.23 152.81 116.95 283.9 128.88 311.56 217.76 174.93 208.23 152.81"/><path class="cls-1" d="M290.53,68.64c10.9,18,12.66,69.29,11.6,91.33-.21,4.38-5.2,11.94-14.43,8-20.32-8.59-68-31.82-78.91-49.8a47.8,47.8,0,0,1,81.74-49.57Z" transform="translate(-27.62 -24.64)"/><path class="cls-20" d="M293.79,63.92c10.91,18,9.4,74,8.34,96.05a6.17,6.17,0,0,1-8.76,5.31c-20-9.24-70.41-33.81-81.32-51.79a47.8,47.8,0,1,1,81.74-49.57Z" transform="translate(-27.62 -24.64)"/><path class="cls-14" d="M276.74,73.31a28.35,28.35,0,1,1-38.94-9.54A28.35,28.35,0,0,1,276.74,73.31Z" transform="translate(-27.62 -24.64)"/><path class="cls-21" d="M325.62,335.85l-84.78-29.39a15,15,0,0,1-9.25-19.08L302.13,84A15,15,0,0,1,321.2,74.7L406,104.09a15,15,0,0,1,9.26,19.08L344.69,326.6A15,15,0,0,1,325.62,335.85Z" transform="translate(-27.62 -24.64)"/><path class="cls-22" d="M324.21,331.88l-79.8-27.67a14.37,14.37,0,0,1-8.54-18.45L304.75,87.11a14.37,14.37,0,0,1,18.13-9.2l79.8,27.67A14.38,14.38,0,0,1,411.22,124L342.34,322.67A14.38,14.38,0,0,1,324.21,331.88Z" transform="translate(-27.62 -24.64)"/><rect class="cls-14" x="229.82" y="153.23" width="186.85" height="105.59" transform="translate(-4.93 419.29) rotate(-70.88)"/><path class="cls-23" d="M360.32,100.64a1.7,1.7,0,0,1-.59-.1,1.78,1.78,0,0,1-1-.91,1.84,1.84,0,0,1-.09-1.38,1.8,1.8,0,0,1,.92-1,1.79,1.79,0,0,1,2.41.83,1.79,1.79,0,0,1,.08,1.38,1.79,1.79,0,0,1-1.7,1.21Zm0-2.61a.73.73,0,0,0-.35.09.76.76,0,0,0-.41.45.82.82,0,0,0,.5,1,.77.77,0,0,0,.61,0,.81.81,0,0,0,.41-.46h0a.81.81,0,0,0,0-.61.78.78,0,0,0-.46-.41A.75.75,0,0,0,360.32,98Z" transform="translate(-27.62 -24.64)"/><path class="cls-23" d="M367.62,109.64a1.17,1.17,0,0,1-.44-.08h0L348.29,103a1.38,1.38,0,0,1-.84-1.75,1.36,1.36,0,0,1,1.74-.84L368.07,107a1.35,1.35,0,0,1,.79.69,1.37,1.37,0,0,1,.06,1A1.39,1.39,0,0,1,367.62,109.64Zm-.12-1a.38.38,0,0,0,.48-.23.39.39,0,0,0,0-.28.36.36,0,0,0-.21-.19l-18.89-6.55a.39.39,0,0,0-.28,0,.36.36,0,0,0-.19.21.37.37,0,0,0,.23.47l18.88,6.55Z" transform="translate(-27.62 -24.64)"/><g class="cls-24"><rect class="cls-17" x="237.13" y="158.18" width="174.69" height="94.43" transform="translate(-3.5 420.03) rotate(-70.88)"/></g><path class="cls-14" d="M297.93,315.08a4.15,4.15,0,0,1-1.34-.23l-19.95-6.92a4.1,4.1,0,0,1-2.53-5.2l.13-.35a4.07,4.07,0,0,1,5.2-2.52l19.95,6.92a4.08,4.08,0,0,1,2.52,5.2l-.12.35a4,4,0,0,1-2.08,2.34A4.11,4.11,0,0,1,297.93,315.08Zm-22.87-12A3.09,3.09,0,0,0,277,307l19.95,6.91a3.09,3.09,0,0,0,3.93-1.9l.12-.35a3.09,3.09,0,0,0-1.91-3.93l-19.95-6.92a3.09,3.09,0,0,0-3.93,1.91Z" transform="translate(-27.62 -24.64)"/><polygon class="cls-18" points="270.68 92.18 356.22 167.8 346.1 196.96 263.21 112.23 270.68 92.18"/><polygon class="cls-18" points="257.82 128.99 343.36 204.61 333.25 233.78 255.22 135.98 257.82 128.99"/><path class="cls-1" d="M148.06,113.73l-26,2.44a10.12,10.12,0,0,1-11-9.13l-2.23-23.7a10.12,10.12,0,0,1,9.09-11l26-2.45a10.14,10.14,0,0,1,11,9.13l2.22,23.7A10.12,10.12,0,0,1,148.06,113.73Z" transform="translate(-27.62 -24.64)"/><rect class="cls-20" x="113.28" y="70.85" width="42.68" height="40.49" rx="9.3" ry="9.3" transform="translate(-35.56 -11.63) rotate(-5.37)"/><path class="cls-14" d="M126.62,103a.62.62,0,0,1-.18,0l-.26-.11,0-.29a9.73,9.73,0,0,1,4-9,7.35,7.35,0,1,1,9.33-1.08,9.76,9.76,0,0,1,6,7.89l0,.29-.24.18C144.9,101.12,128.55,103,126.62,103Zm7.59-22a6.3,6.3,0,0,0-.75,0,6.34,6.34,0,0,0-2.1,12l.82.42-.79.46A8.74,8.74,0,0,0,127.1,102c2.48-.19,14.89-1.62,17.34-2a8.77,8.77,0,0,0-6-6.89l-.88-.27.71-.59a6.35,6.35,0,0,0-4-11.24Z" transform="translate(-27.62 -24.64)"/><path class="cls-14" d="M314.67,378.53l-57.23-18a2.51,2.51,0,0,0-3.14,1.64l-1.94,6.15-1,3-9.33,29.61-.81,2.57-.12.39a2.51,2.51,0,0,0,1.64,3.15L300,425a2.51,2.51,0,0,0,3.15-1.64l.15-.49.73-2.31,10.1-32,.94-3,1.22-3.89A2.49,2.49,0,0,0,314.67,378.53Z" transform="translate(-27.62 -24.64)"/><path class="cls-20" d="M272.61,388.14l5.24,5.27a1.28,1.28,0,0,0,1.19.36l33-7.62,2.49-.57a1.19,1.19,0,0,1,.53,0l1.22-3.89a2.49,2.49,0,0,0-1.64-3.14l-57.23-18a2.51,2.51,0,0,0-3.14,1.64l-1.94,6.15,1.27,1.25Z" transform="translate(-27.62 -24.64)"/><polygon class="cls-20" points="223.79 346.65 214.46 376.26 242.41 364.92 223.79 346.65"/><polygon class="cls-20" points="276.43 395.96 286.52 363.92 259.93 370.05 276.43 395.96"/><path class="cls-20" d="M301.8,422.3l-17.15-26.94-5,1.16a4.18,4.18,0,0,1-2.11-.1,4.12,4.12,0,0,1-1.68-1l-3.69-3.72a1.12,1.12,0,0,1-.28.16l-29.19,11.85a1.42,1.42,0,0,1-.95,0,1.66,1.66,0,0,1-.47-.26l-.12.39a2.51,2.51,0,0,0,1.64,3.15L300,425a2.51,2.51,0,0,0,3.15-1.64l.15-.49a1.4,1.4,0,0,1-.76,0A1.33,1.33,0,0,1,301.8,422.3Z" transform="translate(-27.62 -24.64)"/><rect class="cls-1" x="237.37" y="185.78" width="42.68" height="40.49" rx="9.3" ry="9.3" transform="translate(-88.04 94.6) rotate(-23.32)"/><rect class="cls-20" x="236.41" y="183.26" width="42.68" height="40.49" rx="9.3" ry="9.3" transform="translate(-87.12 94.01) rotate(-23.32)"/><path class="cls-14" d="M257.76,211.8a8.3,8.3,0,0,1-3.3-15.92,8.3,8.3,0,1,1,3.3,15.92Zm0-15.6a7.3,7.3,0,1,0,6.7,4.41h0a7.33,7.33,0,0,0-6.7-4.41Z" transform="translate(-27.62 -24.64)"/><rect class="cls-1" x="363.19" y="157.28" width="57.98" height="61.11" rx="13.32" ry="13.32" transform="translate(143.11 537.42) rotate(-84.98)"/><rect class="cls-20" x="367.31" y="153.77" width="57.98" height="61.11" rx="13.32" ry="13.32" transform="translate(150.35 538.32) rotate(-84.98)"/><path class="cls-14" d="M395.55,200.49l-.64,0h0a6.83,6.83,0,0,1-6.14-6.11l-.06-.6L402.26,195l-.17.59A6.83,6.83,0,0,1,395.55,200.49Zm-5.69-5.63a5.82,5.82,0,0,0,5.15,4.6h0a5.83,5.83,0,0,0,5.92-3.56Z" transform="translate(-27.62 -24.64)"/><path class="cls-14" d="M405.5,196.3c-.21,0-.42,0-.62,0l-19-1.78a6.46,6.46,0,0,1-.34-12.82l.58-6.17a11.07,11.07,0,0,1,22,2.08l-.59,6.17a6.45,6.45,0,0,1-2.1,12.55Zm-8.34-29.82a10.07,10.07,0,0,0-10,9.12l-.66,7-.42,0a5.46,5.46,0,0,0-.07,10.87l19,1.79a5.45,5.45,0,0,0,2-10.69l-.4-.12.66-7a10.08,10.08,0,0,0-9.08-11C397.79,166.49,397.48,166.48,397.16,166.48Z" transform="translate(-27.62 -24.64)"/><rect class="cls-1" x="51.91" y="273.82" width="156.1" height="75.13" rx="11.06" ry="11.06" transform="translate(-141.83 53.87) rotate(-23.7)"/><rect class="cls-20" x="54.87" y="273.2" width="151.47" height="67.77" rx="7.61" ry="7.61" transform="translate(-140.05 53.77) rotate(-23.7)"/><rect class="cls-25" x="73.92" y="302.3" width="40.22" height="40.22" transform="translate(-149.3 40.36) rotate(-23.7)"/><path class="cls-14" d="M120.48,299.32a1,1,0,0,1-.4-1.91L175,273.29a1,1,0,0,1,1.32.51,1,1,0,0,1-.52,1.32l-54.94,24.12A1.1,1.1,0,0,1,120.48,299.32Z" transform="translate(-27.62 -24.64)"/><path class="cls-14" d="M132.73,327.21a1,1,0,0,1-.92-.6,1,1,0,0,1,.51-1.32l54.94-24.12a1,1,0,0,1,.81,1.84l-54.94,24.12A1.14,1.14,0,0,1,132.73,327.21Z" transform="translate(-27.62 -24.64)"/><path class="cls-14" d="M126.6,313.27a1,1,0,0,1-.4-1.92l29-12.73a1,1,0,0,1,.8,1.83l-29,12.73A1,1,0,0,1,126.6,313.27Z" transform="translate(-27.62 -24.64)"/><path class="cls-14" d="M162.3,297.59a1,1,0,0,1-.4-1.91l19.24-8.45a1,1,0,1,1,.81,1.83l-19.25,8.45A.92.92,0,0,1,162.3,297.59Z" transform="translate(-27.62 -24.64)"/><path class="cls-1" d="M417.15,336.84c.43,10.41-11.07,33.09-16.79,42.4a4.89,4.89,0,0,1-8.18,0c-6.77-8.59-21.91-30.06-22.34-40.47a23.68,23.68,0,1,1,47.31-2Z" transform="translate(-27.62 -24.64)"/><path class="cls-20" d="M419.69,335.57c.44,10.41-13.61,34.36-19.33,43.67a3.06,3.06,0,0,1-5.07.21c-6.49-8.8-22.47-31.5-22.91-41.9a23.68,23.68,0,1,1,47.31-2Z" transform="translate(-27.62 -24.64)"/><path class="cls-14" d="M410.05,335.57a14,14,0,1,1-14.62-13.44A14.06,14.06,0,0,1,410.05,335.57Z" transform="translate(-27.62 -24.64)"/></g></svg>